<?xml version="1.0" encoding="utf-8"?>
<!-- Generator: Adobe Illustrator 17.0.0, SVG Export Plug-In . SVG Version: 6.00 Build 0)  -->
<!DOCTYPE svg PUBLIC "-//W3C//DTD SVG 1.1//EN" "http://www.w3.org/Graphics/SVG/1.1/DTD/svg11.dtd">
<svg version="1.1" id="Layer_1" xmlns="http://www.w3.org/2000/svg" xmlns:xlink="http://www.w3.org/1999/xlink" x="0px" y="0px"
	 width="167px" height="57px" viewBox="0 0 167 57" enable-background="new 0 0 167 57" xml:space="preserve">
<g>
	<g>
		<path d="M38.354,45.801c-3.15,0-5.985-0.4-8.505-1.197c-2.52-0.797-4.662-2.026-6.426-3.686c-1.764-1.659-3.118-3.758-4.064-6.3
			c-0.945-2.541-1.418-5.533-1.418-8.978V0.882h12.474v24.507c0,3.192,0.729,5.555,2.187,7.087c1.459,1.534,3.418,2.3,5.877,2.3
			c2.459,0,4.417-0.734,5.876-2.205c1.459-1.47,2.189-3.758,2.189-6.867V0.882h12.474v24.444c0,3.57-0.494,6.647-1.481,9.23
			c-0.987,2.583-2.373,4.704-4.158,6.363c-1.786,1.66-3.948,2.888-6.489,3.686C44.348,45.402,41.504,45.801,38.354,45.801z"/>
		<path d="M66.263,0.882h18.9c2.772,0,5.292,0.347,7.56,1.04c2.268,0.693,4.199,1.701,5.796,3.024
			c1.595,1.323,2.824,2.951,3.685,4.883c0.86,1.932,1.291,4.117,1.291,6.552v0.126c0,2.605-0.472,4.893-1.418,6.867
			c-0.945,1.975-2.258,3.633-3.938,4.977c-1.68,1.345-3.685,2.353-6.017,3.024c-2.331,0.672-4.862,1.008-7.591,1.008h-6.048v12.6
			H66.263V0.882z M84.281,22.806c2.183,0,3.895-0.517,5.135-1.552c1.238-1.034,1.858-2.438,1.858-4.212v-0.127
			c0-1.9-0.62-3.347-1.858-4.339c-1.239-0.992-2.972-1.489-5.198-1.489h-5.733v11.718H84.281z"/>
		<path d="M131.152,45.864c-3.445,0-6.626-0.557-9.544-1.67c-2.92-1.112-5.45-2.677-7.592-4.693c-2.142-2.016-3.822-4.42-5.04-7.214
			c-1.219-2.793-1.827-5.869-1.827-9.23v-0.126c0-3.191,0.595-6.184,1.787-8.977c1.191-2.793,2.831-5.229,4.921-7.308
			c2.089-2.079,4.591-3.706,7.506-4.883C124.277,0.589,127.435,0,130.837,0c3.906,0,7.276,0.567,10.111,1.701
			c2.835,1.134,5.428,2.709,7.781,4.725l-7.182,8.631c-1.597-1.344-3.224-2.372-4.882-3.087c-1.66-0.714-3.582-1.071-5.765-1.071
			c-1.597,0-3.077,0.315-4.441,0.945c-1.365,0.63-2.551,1.491-3.559,2.583c-1.008,1.093-1.806,2.373-2.394,3.843
			c-0.588,1.471-0.882,3.046-0.882,4.725v0.126c0,1.764,0.294,3.402,0.885,4.914c0.59,1.512,1.421,2.803,2.496,3.874
			c1.075,1.071,2.339,1.912,3.793,2.52c1.453,0.609,3.065,0.913,4.835,0.913c2.865,0,5.225-0.608,7.08-1.827v-5.355h-8.694v-8.946
			h20.286V39.06c-2.353,1.932-5.125,3.55-8.316,4.851C138.796,45.213,135.184,45.864,131.152,45.864z"/>
	</g>
	<g>
		<path fill="#FFB600" d="M150.279,34.264v2.577c5.507,2.502,10.817,5.303,15.899,8.382
			C161.166,41.198,155.853,37.533,150.279,34.264z"/>
		<g>
			<path fill="#FFB600" d="M83.589,16.195c-1.72,0-3.43,0.039-5.134,0.104v6.559c1.706-0.051,3.418-0.081,5.138-0.081
				c19.482,0,38.074,3.217,55.1,9.357v-3.914C121.923,20.502,103.261,16.195,83.589,16.195z"/>
			<g>
				<path fill="#FFB600" d="M19.29,34.679c-0.181-0.485-0.338-0.992-0.484-1.511C12.535,36.708,6.581,40.741,1,45.222
					c5.931-3.593,12.171-6.798,18.676-9.585C19.541,35.325,19.412,35.006,19.29,34.679z"/>
				<path fill="#FFB600" d="M30.45,27.336c0.16,1.491,0.516,2.757,1.077,3.793c11.008-3.683,22.642-6.218,34.722-7.463v-6.341
					C53.671,18.976,41.654,22.402,30.45,27.336z"/>
			</g>
		</g>
	</g>
	<g>
		<path d="M20.545,51.99v2.294c0,0.262-0.059,0.491-0.176,0.689c-0.117,0.197-0.287,0.348-0.508,0.453
			c-0.221,0.105-0.483,0.158-0.786,0.158c-0.456,0-0.81-0.117-1.062-0.35c-0.252-0.234-0.378-0.553-0.378-0.959V51.99h0.749v2.17
			c0,0.273,0.055,0.474,0.165,0.601c0.11,0.128,0.292,0.192,0.546,0.192c0.246,0,0.424-0.064,0.535-0.193s0.166-0.33,0.166-0.605
			V51.99H20.545z"/>
		<path d="M27.339,55.535h-0.955l-1.542-2.682H24.82c0.031,0.474,0.046,0.811,0.046,1.013v1.668h-0.672V51.99h0.948l1.54,2.655
			h0.017c-0.024-0.461-0.036-0.786-0.036-0.977V51.99h0.676V55.535z"/>
		<path d="M31.012,55.535V51.99h0.752v3.545H31.012z"/>
		<path d="M36.176,55.535h-0.739V51.99h2.032v0.616h-1.292v0.914h1.203v0.613h-1.203V55.535z"/>
		<path d="M40.942,55.535V51.99h0.752v3.545H40.942z"/>
		<path d="M47.408,55.535h-2.042V51.99h2.042v0.616h-1.29v0.778h1.2V54h-1.2v0.914h1.29V55.535z"/>
		<path d="M53.869,53.729c0,0.584-0.166,1.03-0.498,1.341s-0.812,0.466-1.439,0.466h-1.004V51.99h1.113
			c0.579,0,1.028,0.153,1.348,0.458S53.869,53.181,53.869,53.729z M53.089,53.748c0-0.761-0.336-1.142-1.009-1.142h-0.4v2.308h0.322
			C52.727,54.914,53.089,54.526,53.089,53.748z"/>
		<path d="M63.904,53.096c0,0.381-0.119,0.673-0.358,0.875c-0.238,0.202-0.577,0.303-1.017,0.303h-0.322v1.261h-0.752V51.99h1.132
			c0.43,0,0.757,0.093,0.981,0.278C63.792,52.453,63.904,52.729,63.904,53.096z M62.207,53.658h0.247
			c0.231,0,0.404-0.046,0.519-0.137c0.115-0.091,0.172-0.224,0.172-0.399c0-0.176-0.048-0.306-0.144-0.39
			c-0.096-0.084-0.247-0.126-0.452-0.126h-0.342V53.658z"/>
		<path d="M69.524,55.535l-0.257-0.844h-1.292l-0.257,0.844h-0.81l1.251-3.559h0.919l1.256,3.559H69.524z M69.088,54.061
			c-0.238-0.765-0.371-1.197-0.401-1.297c-0.03-0.1-0.051-0.179-0.064-0.238c-0.053,0.207-0.206,0.718-0.458,1.535H69.088z"/>
		<path d="M74.664,53.45l0.74-1.46h0.81l-1.176,2.165v1.38h-0.747V54.18l-1.176-2.189h0.815L74.664,53.45z"/>
		<path d="M80.941,55.535l-0.853-2.781h-0.022c0.031,0.566,0.046,0.943,0.046,1.132v1.649H79.44V51.99h1.023l0.839,2.711h0.015
			l0.89-2.711h1.023v3.545h-0.701v-1.678c0-0.079,0.001-0.171,0.004-0.274c0.002-0.103,0.013-0.378,0.033-0.824h-0.022l-0.914,2.776
			H80.941z"/>
		<path d="M88.944,55.535h-2.042V51.99h2.042v0.616h-1.29v0.778h1.2V54h-1.2v0.914h1.29V55.535z"/>
		<path d="M95.609,55.535h-0.955l-1.542-2.682H93.09c0.031,0.474,0.046,0.811,0.046,1.013v1.668h-0.672V51.99h0.948l1.54,2.655
			h0.017c-0.024-0.461-0.036-0.786-0.036-0.977V51.99h0.676V55.535z"/>
		<path d="M100.65,55.535h-0.752v-2.919h-0.963V51.99h2.677v0.626h-0.963V55.535z"/>
		<path d="M110.354,53.544h1.406v1.838c-0.228,0.074-0.442,0.126-0.644,0.156s-0.407,0.045-0.617,0.045
			c-0.535,0-0.944-0.157-1.226-0.472s-0.423-0.766-0.423-1.354c0-0.572,0.164-1.018,0.491-1.338s0.781-0.48,1.361-0.48
			c0.364,0,0.714,0.073,1.052,0.218l-0.25,0.601c-0.259-0.129-0.528-0.194-0.807-0.194c-0.325,0-0.585,0.109-0.781,0.327
			c-0.196,0.218-0.293,0.512-0.293,0.88c0,0.385,0.079,0.678,0.236,0.881c0.158,0.203,0.387,0.304,0.687,0.304
			c0.157,0,0.316-0.016,0.478-0.048V54.17h-0.672V53.544z"/>
		<path d="M117.555,55.535l-0.257-0.844h-1.292l-0.257,0.844h-0.81l1.251-3.559h0.919l1.256,3.559H117.555z M117.119,54.061
			c-0.238-0.765-0.371-1.197-0.401-1.297c-0.03-0.1-0.051-0.179-0.064-0.238c-0.053,0.207-0.206,0.718-0.458,1.535H117.119z"/>
		<path d="M122.959,55.535h-0.752v-2.919h-0.963V51.99h2.677v0.626h-0.963V55.535z"/>
		<path d="M129.29,55.535h-2.042V51.99h2.042v0.616H128v0.778h1.2V54H128v0.914h1.29V55.535z"/>
		<path d="M136.263,55.535h-0.856l-0.48-1.862c-0.018-0.066-0.048-0.203-0.091-0.411c-0.043-0.208-0.067-0.347-0.074-0.418
			c-0.01,0.087-0.034,0.228-0.073,0.421c-0.039,0.193-0.069,0.331-0.09,0.413l-0.478,1.857h-0.853l-0.904-3.545h0.74l0.453,1.935
			c0.079,0.357,0.137,0.667,0.172,0.929c0.01-0.092,0.032-0.235,0.067-0.428c0.035-0.193,0.067-0.343,0.098-0.45l0.516-1.986h0.71
			l0.516,1.986c0.023,0.089,0.051,0.225,0.085,0.407c0.034,0.183,0.06,0.339,0.078,0.47c0.016-0.126,0.042-0.283,0.078-0.472
			c0.036-0.188,0.068-0.341,0.097-0.457l0.451-1.935h0.74L136.263,55.535z"/>
		<path d="M142.561,55.535l-0.257-0.844h-1.292l-0.257,0.844h-0.81l1.251-3.559h0.919l1.256,3.559H142.561z M142.125,54.061
			c-0.238-0.765-0.371-1.197-0.401-1.297c-0.03-0.1-0.051-0.179-0.064-0.238c-0.053,0.207-0.206,0.718-0.458,1.535H142.125z"/>
		<path d="M147.701,53.45l0.74-1.46h0.81l-1.176,2.165v1.38h-0.747V54.18l-1.176-2.189h0.815L147.701,53.45z"/>
	</g>
</g>
</svg>
