<?xml version="1.0" encoding="utf-8"?>
<!-- Generator: Adobe Illustrator 17.0.0, SVG Export Plug-In . SVG Version: 6.00 Build 0)  -->
<!DOCTYPE svg PUBLIC "-//W3C//DTD SVG 1.1//EN" "http://www.w3.org/Graphics/SVG/1.1/DTD/svg11.dtd">
<svg version="1.1" id="Layer_1" xmlns="http://www.w3.org/2000/svg" xmlns:xlink="http://www.w3.org/1999/xlink" x="0px" y="0px"
	 width="304px" height="102px" viewBox="0 0 304 102" enable-background="new 0 0 304 102" xml:space="preserve">
<g>
	<g>
		<path d="M69.245,83.679c-5.755,0-10.935-0.731-15.539-2.187c-4.604-1.457-8.518-3.701-11.74-6.734
			c-3.223-3.03-5.697-6.866-7.424-11.51c-1.727-4.642-2.59-10.109-2.59-16.402V1.611h22.79v44.775
			c0,5.833,1.331,10.149,3.996,12.949c2.665,2.802,6.244,4.201,10.737,4.201s8.069-1.341,10.735-4.028
			c2.666-2.685,3.999-6.866,3.999-12.546V1.611h22.79v44.66c0,6.523-0.903,12.143-2.705,16.863
			c-1.804,4.719-4.336,8.595-7.597,11.625c-3.262,3.033-7.214,5.277-11.855,6.734C80.198,82.949,75,83.679,69.245,83.679z"/>
		<path d="M120.235,1.611h34.53c5.065,0,9.669,0.633,13.812,1.899c4.144,1.266,7.672,3.108,10.59,5.525
			c2.915,2.417,5.16,5.392,6.733,8.92c1.572,3.53,2.36,7.521,2.36,11.971v0.23c0,4.759-0.863,8.94-2.59,12.546
			c-1.726,3.608-4.126,6.638-7.194,9.093c-3.07,2.457-6.733,4.298-10.992,5.525c-4.258,1.229-8.882,1.842-13.869,1.842h-11.05
			v23.021h-22.33V1.611z M153.154,41.667c3.989,0,7.117-0.944,9.381-2.835c2.262-1.89,3.395-4.455,3.395-7.696v-0.232
			c0-3.471-1.133-6.115-3.395-7.928c-2.264-1.813-5.43-2.72-9.497-2.72h-10.474v21.409H153.154z"/>
		<path d="M238.789,83.794c-6.293,0-12.106-1.018-17.438-3.05c-5.335-2.032-9.957-4.892-13.87-8.575
			c-3.914-3.683-6.983-8.075-9.208-13.179c-2.227-5.102-3.338-10.723-3.338-16.863v-0.23c0-5.831,1.088-11.298,3.264-16.402
			c2.176-5.102,5.172-9.554,8.991-13.352c3.816-3.798,8.388-6.771,13.713-8.92C226.227,1.076,231.998,0,238.214,0
			c7.136,0,13.294,1.036,18.473,3.108c5.18,2.072,9.917,4.95,14.215,8.633L257.78,27.509c-2.917-2.455-5.89-4.334-8.92-5.64
			c-3.032-1.304-6.543-1.957-10.532-1.957c-2.917,0-5.622,0.575-8.115,1.726c-2.495,1.151-4.662,2.725-6.503,4.719
			c-1.842,1.996-3.3,4.336-4.374,7.021c-1.075,2.687-1.611,5.564-1.611,8.633v0.23c0,3.223,0.537,6.215,1.617,8.978
			c1.077,2.762,2.597,5.122,4.56,7.079c1.964,1.957,4.273,3.492,6.93,4.604c2.655,1.113,5.601,1.669,8.834,1.669
			c5.235,0,9.546-1.111,12.935-3.338v-9.784h-15.884V35.106h37.063v36.257c-4.298,3.53-9.363,6.485-15.193,8.863
			C252.754,82.604,246.155,83.794,238.789,83.794z"/>
	</g>
	<g>
		<path fill="#FFB600" d="M273.734,62.6v4.708c10.062,4.572,19.762,9.689,29.048,15.313C293.624,75.268,283.916,68.573,273.734,62.6
			z"/>
		<g>
			<path fill="#FFB600" d="M151.891,29.587c-3.142,0-6.267,0.071-9.379,0.19V41.76c3.117-0.094,6.245-0.148,9.387-0.148
				c35.593,0,69.562,5.878,100.667,17.095v-7.151C221.926,37.458,187.83,29.587,151.891,29.587z"/>
			<g>
				<path fill="#FFB600" d="M34.416,63.359c-0.33-0.887-0.618-1.813-0.885-2.76C22.075,67.065,11.196,74.435,1,82.621
					C11.837,76.057,23.237,70.2,35.121,65.11C34.874,64.539,34.638,63.956,34.416,63.359z"/>
				<path fill="#FFB600" d="M54.805,49.944c0.292,2.723,0.943,5.038,1.967,6.929c20.111-6.729,41.367-11.36,63.438-13.635V31.652
					C97.23,34.668,75.275,40.929,54.805,49.944z"/>
			</g>
		</g>
	</g>
	<g>
		<path d="M36.709,94.986v4.191c0,0.478-0.107,0.898-0.321,1.258s-0.523,0.636-0.928,0.828s-0.883,0.288-1.435,0.288
			c-0.833,0-1.48-0.213-1.94-0.64c-0.461-0.427-0.691-1.011-0.691-1.752v-4.173h1.369v3.965c0,0.499,0.1,0.865,0.301,1.099
			s0.533,0.35,0.997,0.35c0.449,0,0.774-0.117,0.977-0.352c0.202-0.235,0.303-0.603,0.303-1.105v-3.956H36.709z"/>
		<path d="M49.121,101.463h-1.745l-2.817-4.899h-0.04c0.056,0.865,0.084,1.482,0.084,1.852v3.048h-1.227v-6.476h1.732l2.813,4.851
			h0.031c-0.044-0.842-0.066-1.437-0.066-1.785v-3.065h1.236V101.463z"/>
		<path d="M55.831,101.463v-6.476h1.373v6.476H55.831z"/>
		<path d="M65.266,101.463h-1.351v-6.476h3.712v1.125h-2.361v1.67h2.197v1.121h-2.197V101.463z"/>
		<path d="M73.974,101.463v-6.476h1.373v6.476H73.974z"/>
		<path d="M85.788,101.463h-3.73v-6.476h3.73v1.125h-2.357v1.422h2.193v1.125h-2.193v1.67h2.357V101.463z"/>
		<path d="M97.593,98.162c0,1.066-0.303,1.883-0.91,2.45c-0.607,0.567-1.483,0.851-2.629,0.851h-1.834v-6.476h2.033
			c1.057,0,1.878,0.279,2.463,0.837S97.593,97.161,97.593,98.162z M96.166,98.198c0-1.391-0.614-2.086-1.843-2.086h-0.731v4.217
			h0.589C95.505,100.329,96.166,99.618,96.166,98.198z"/>
		<path d="M115.926,97.006c0,0.697-0.218,1.23-0.653,1.599c-0.436,0.369-1.055,0.554-1.858,0.554h-0.589v2.303h-1.373v-6.476h2.069
			c0.786,0,1.383,0.169,1.792,0.507C115.722,95.832,115.926,96.336,115.926,97.006z M112.825,98.034h0.452
			c0.422,0,0.738-0.083,0.948-0.25c0.21-0.167,0.315-0.41,0.315-0.729c0-0.322-0.088-0.56-0.264-0.713s-0.451-0.23-0.826-0.23
			h-0.625V98.034z"/>
		<path d="M126.194,101.463l-0.47-1.542h-2.361l-0.47,1.542h-1.48l2.286-6.503h1.679l2.295,6.503H126.194z M125.396,98.769
			c-0.434-1.397-0.678-2.187-0.733-2.37s-0.094-0.328-0.117-0.434c-0.097,0.378-0.377,1.313-0.837,2.804H125.396z"/>
		<path d="M135.585,97.653l1.351-2.667h1.48l-2.148,3.956v2.521h-1.364v-2.476l-2.148-4h1.488L135.585,97.653z"/>
		<path d="M147.052,101.463l-1.559-5.081h-0.04c0.056,1.034,0.084,1.723,0.084,2.069v3.012h-1.227v-6.476h1.869l1.533,4.952h0.027
			l1.626-4.952h1.869v6.476h-1.28v-3.065c0-0.145,0.002-0.312,0.007-0.501c0.004-0.189,0.024-0.691,0.06-1.506h-0.04l-1.67,5.072
			H147.052z"/>
		<path d="M161.675,101.463h-3.73v-6.476h3.73v1.125h-2.357v1.422h2.193v1.125h-2.193v1.67h2.357V101.463z"/>
		<path d="M173.851,101.463h-1.745l-2.817-4.899h-0.04c0.056,0.865,0.084,1.482,0.084,1.852v3.048h-1.227v-6.476h1.732l2.813,4.851
			h0.031c-0.044-0.842-0.066-1.437-0.066-1.785v-3.065h1.236V101.463z"/>
		<path d="M183.06,101.463h-1.373v-5.333h-1.759v-1.143h4.89v1.143h-1.759V101.463z"/>
		<path d="M200.791,97.826h2.569v3.358c-0.416,0.136-0.808,0.231-1.176,0.286c-0.368,0.055-0.743,0.082-1.127,0.082
			c-0.977,0-1.724-0.287-2.239-0.862s-0.773-1.399-0.773-2.474c0-1.045,0.299-1.86,0.897-2.445c0.598-0.585,1.427-0.877,2.487-0.877
			c0.664,0,1.305,0.133,1.923,0.399l-0.456,1.099c-0.473-0.236-0.964-0.354-1.475-0.354c-0.594,0-1.069,0.199-1.426,0.598
			c-0.357,0.399-0.536,0.935-0.536,1.608c0,0.703,0.144,1.24,0.432,1.61s0.707,0.556,1.256,0.556c0.286,0,0.577-0.03,0.873-0.089
			v-1.351h-1.227V97.826z"/>
		<path d="M213.947,101.463l-0.47-1.542h-2.361l-0.47,1.542h-1.48l2.286-6.503h1.679l2.295,6.503H213.947z M213.15,98.769
			c-0.434-1.397-0.678-2.187-0.733-2.37c-0.055-0.183-0.094-0.328-0.117-0.434c-0.097,0.378-0.377,1.313-0.837,2.804H213.15z"/>
		<path d="M223.82,101.463h-1.373v-5.333h-1.759v-1.143h4.89v1.143h-1.759V101.463z"/>
		<path d="M235.386,101.463h-3.73v-6.476h3.73v1.125h-2.357v1.422h2.193v1.125h-2.193v1.67h2.357V101.463z"/>
		<path d="M248.125,101.463h-1.564l-0.877-3.402c-0.032-0.121-0.088-0.371-0.166-0.751s-0.123-0.634-0.135-0.764
			c-0.018,0.159-0.062,0.416-0.133,0.769c-0.071,0.353-0.126,0.605-0.164,0.755l-0.873,3.393h-1.559l-1.652-6.476h1.351l0.828,3.535
			c0.145,0.653,0.25,1.218,0.315,1.697c0.018-0.168,0.058-0.429,0.122-0.782c0.063-0.353,0.123-0.627,0.179-0.822l0.944-3.628h1.298
			l0.944,3.628c0.041,0.162,0.093,0.41,0.155,0.744c0.062,0.334,0.109,0.62,0.142,0.859c0.03-0.23,0.077-0.518,0.142-0.862
			c0.065-0.344,0.124-0.622,0.177-0.835l0.824-3.535h1.351L248.125,101.463z"/>
		<path d="M259.633,101.463l-0.47-1.542h-2.361l-0.47,1.542h-1.48l2.286-6.503h1.679l2.295,6.503H259.633z M258.836,98.769
			c-0.434-1.397-0.678-2.187-0.733-2.37s-0.094-0.328-0.117-0.434c-0.097,0.378-0.377,1.313-0.837,2.804H258.836z"/>
		<path d="M269.023,97.653l1.351-2.667h1.48l-2.148,3.956v2.521h-1.364v-2.476l-2.148-4h1.488L269.023,97.653z"/>
	</g>
</g>
</svg>
