<?xml version="1.0" encoding="utf-8"?>
<!-- Generator: Adobe Illustrator 17.0.0, SVG Export Plug-In . SVG Version: 6.00 Build 0)  -->
<!DOCTYPE svg PUBLIC "-//W3C//DTD SVG 1.1//EN" "http://www.w3.org/Graphics/SVG/1.1/DTD/svg11.dtd">
<svg version="1.1" id="Layer_1" xmlns="http://www.w3.org/2000/svg" xmlns:xlink="http://www.w3.org/1999/xlink" x="0px" y="0px"
	 width="202px" height="68px" viewBox="0 0 202 68" enable-background="new 0 0 202 68" xml:space="preserve">
<g>
	<g>
		<path d="M45.685,56.017c-3.852,0-7.32-0.489-10.402-1.464c-3.082-0.975-5.702-2.478-7.859-4.508
			c-2.158-2.029-3.814-4.597-4.97-7.705c-1.156-3.107-1.734-6.767-1.734-10.98V1.079h15.256v29.973c0,3.904,0.891,6.794,2.675,8.668
			c1.784,1.876,4.18,2.812,7.188,2.812s5.402-0.898,7.186-2.697c1.785-1.798,2.677-4.597,2.677-8.399V1.079h15.256v29.896
			c0,4.367-0.604,8.129-1.811,11.288c-1.207,3.159-2.903,5.754-5.086,7.782c-2.184,2.03-4.829,3.532-7.936,4.508
			C53.017,55.528,49.537,56.017,45.685,56.017z"/>
		<path d="M79.819,1.079h23.115c3.39,0,6.472,0.424,9.246,1.271c2.774,0.848,5.136,2.08,7.089,3.699
			c1.951,1.618,3.454,3.609,4.507,5.971c1.052,2.363,1.58,5.035,1.58,8.013v0.154c0,3.186-0.578,5.985-1.734,8.399
			c-1.156,2.415-2.762,4.444-4.816,6.087c-2.055,1.645-4.507,2.877-7.359,3.698c-2.851,0.822-5.946,1.233-9.285,1.233h-7.397v15.41
			H79.819V1.079z M101.855,27.893c2.67,0,4.764-0.632,6.28-1.898c1.514-1.265,2.273-2.982,2.273-5.152v-0.155
			c0-2.324-0.759-4.093-2.273-5.307c-1.516-1.214-3.635-1.82-6.357-1.82h-7.012v14.332H101.855z"/>
		<path d="M159.181,56.094c-4.213,0-8.104-0.681-11.673-2.042c-3.571-1.36-6.665-3.274-9.285-5.74
			c-2.62-2.466-4.675-5.406-6.164-8.822c-1.491-3.416-2.234-7.178-2.234-11.288v-0.154c0-3.903,0.728-7.563,2.185-10.98
			c1.457-3.416,3.463-6.396,6.019-8.938c2.555-2.543,5.615-4.533,9.18-5.971C150.772,0.72,154.635,0,158.796,0
			c4.777,0,8.899,0.693,12.367,2.08c3.468,1.387,6.638,3.313,9.516,5.779l-8.784,10.556c-1.953-1.643-3.943-2.901-5.971-3.775
			c-2.03-0.873-4.38-1.31-7.051-1.31c-1.953,0-3.764,0.385-5.432,1.156c-1.67,0.77-3.121,1.824-4.353,3.159
			c-1.233,1.336-2.209,2.903-2.928,4.7c-0.72,1.799-1.078,3.725-1.078,5.779v0.154c0,2.157,0.36,4.161,1.082,6.01
			c0.721,1.849,1.738,3.429,3.053,4.739c1.315,1.31,2.861,2.338,4.639,3.082c1.777,0.745,3.749,1.117,5.914,1.117
			c3.505,0,6.39-0.744,8.659-2.234v-6.549h-10.633V23.501h24.811v24.271c-2.877,2.363-6.268,4.341-10.171,5.933
			C168.53,55.297,164.112,56.094,159.181,56.094z"/>
	</g>
	<g>
		<path fill="#FFB600" d="M182.574,41.906v3.151c6.736,3.06,13.229,6.486,19.445,10.251
			C195.889,50.386,189.39,45.905,182.574,41.906z"/>
		<g>
			<path fill="#FFB600" d="M101.01,19.806c-2.103,0-4.195,0.047-6.279,0.127v8.021c2.086-0.063,4.18-0.099,6.284-0.099
				c23.827,0,46.566,3.935,67.389,11.444v-4.787C147.893,25.075,125.068,19.806,101.01,19.806z"/>
			<g>
				<path fill="#FFB600" d="M22.369,42.414c-0.221-0.594-0.414-1.214-0.592-1.848C14.108,44.895,6.826,49.828,0,55.308
					c7.254-4.394,14.886-8.315,22.841-11.722C22.676,43.204,22.518,42.814,22.369,42.414z"/>
				<path fill="#FFB600" d="M36.018,33.433c0.196,1.823,0.631,3.373,1.317,4.638c13.463-4.504,27.692-7.605,42.466-9.128v-7.756
					C64.419,23.208,49.721,27.399,36.018,33.433z"/>
			</g>
		</g>
	</g>
	<g>
		<path d="M23.905,63.586v2.805c0,0.32-0.072,0.601-0.215,0.842c-0.143,0.241-0.35,0.426-0.621,0.555
			c-0.271,0.128-0.591,0.193-0.961,0.193c-0.557,0-0.99-0.143-1.299-0.428s-0.463-0.677-0.463-1.173v-2.793h0.916v2.654
			c0,0.334,0.067,0.579,0.202,0.735c0.134,0.156,0.357,0.234,0.667,0.234c0.3,0,0.518-0.079,0.654-0.236
			c0.135-0.157,0.203-0.404,0.203-0.74v-2.648H23.905z"/>
		<path d="M32.213,67.921h-1.168l-1.886-3.28h-0.027c0.038,0.579,0.056,0.992,0.056,1.24v2.04h-0.821v-4.335h1.159l1.883,3.247
			h0.021c-0.03-0.563-0.044-0.962-0.044-1.195v-2.052h0.827V67.921z"/>
		<path d="M36.705,67.921v-4.335h0.919v4.335H36.705z"/>
		<path d="M43.021,67.921h-0.904v-4.335h2.485v0.753h-1.581v1.118h1.471v0.75h-1.471V67.921z"/>
		<path d="M48.851,67.921v-4.335h0.919v4.335H48.851z"/>
		<path d="M56.759,67.921h-2.497v-4.335h2.497v0.753h-1.578v0.952h1.468v0.753h-1.468v1.118h1.578V67.921z"/>
		<path d="M64.661,65.712c0,0.714-0.203,1.26-0.609,1.64c-0.406,0.38-0.993,0.569-1.76,0.569h-1.228v-4.335h1.361
			c0.708,0,1.257,0.187,1.649,0.56C64.465,64.52,64.661,65.042,64.661,65.712z M63.706,65.736c0-0.931-0.411-1.397-1.234-1.397
			h-0.489v2.823h0.394C63.263,67.162,63.706,66.687,63.706,65.736z"/>
		<path d="M76.934,64.938c0,0.467-0.146,0.823-0.437,1.07c-0.292,0.247-0.706,0.371-1.244,0.371h-0.394v1.542h-0.919v-4.335h1.385
			c0.526,0,0.926,0.113,1.199,0.34C76.797,64.152,76.934,64.489,76.934,64.938z M74.858,65.626h0.302
			c0.283,0,0.494-0.056,0.635-0.168c0.14-0.112,0.211-0.274,0.211-0.488c0-0.215-0.059-0.375-0.176-0.477
			c-0.118-0.103-0.302-0.154-0.553-0.154h-0.418V65.626z"/>
		<path d="M83.807,67.921l-0.314-1.032h-1.581l-0.314,1.032h-0.99l1.53-4.353h1.124l1.536,4.353H83.807z M83.274,66.118
			c-0.291-0.935-0.454-1.464-0.491-1.586c-0.037-0.123-0.063-0.219-0.079-0.291c-0.065,0.253-0.252,0.879-0.56,1.877H83.274z"/>
		<path d="M90.094,65.371l0.904-1.785h0.99l-1.438,2.648v1.687h-0.913v-1.658l-1.438-2.678h0.996L90.094,65.371z"/>
		<path d="M97.771,67.921l-1.044-3.401H96.7c0.038,0.692,0.056,1.154,0.056,1.385v2.016h-0.821v-4.335h1.251l1.026,3.315h0.018
			l1.088-3.315h1.251v4.335h-0.857v-2.052c0-0.097,0.001-0.209,0.004-0.335c0.003-0.127,0.016-0.463,0.04-1.008h-0.027l-1.118,3.395
			H97.771z"/>
		<path d="M107.559,67.921h-2.497v-4.335h2.497v0.753h-1.578v0.952h1.468v0.753h-1.468v1.118h1.578V67.921z"/>
		<path d="M115.71,67.921h-1.168l-1.886-3.28h-0.027c0.038,0.579,0.056,0.992,0.056,1.24v2.04h-0.821v-4.335h1.159l1.883,3.247
			h0.021c-0.03-0.563-0.044-0.962-0.044-1.195v-2.052h0.827V67.921z"/>
		<path d="M121.875,67.921h-0.919v-3.57h-1.177v-0.765h3.274v0.765h-1.177V67.921z"/>
		<path d="M133.744,65.487h1.72v2.248c-0.279,0.091-0.541,0.155-0.787,0.191c-0.246,0.037-0.498,0.055-0.755,0.055
			c-0.654,0-1.154-0.192-1.499-0.577c-0.345-0.385-0.517-0.937-0.517-1.656c0-0.7,0.2-1.245,0.6-1.637
			c0.4-0.391,0.955-0.587,1.665-0.587c0.445,0,0.874,0.089,1.287,0.267l-0.305,0.735c-0.316-0.158-0.645-0.237-0.987-0.237
			c-0.397,0-0.716,0.133-0.955,0.4c-0.239,0.267-0.359,0.626-0.359,1.076c0,0.471,0.096,0.83,0.289,1.078s0.473,0.372,0.841,0.372
			c0.192,0,0.386-0.02,0.584-0.059v-0.904h-0.821V65.487z"/>
		<path d="M142.551,67.921l-0.314-1.032h-1.581l-0.314,1.032h-0.99l1.53-4.353h1.124l1.536,4.353H142.551z M142.018,66.118
			c-0.291-0.935-0.454-1.464-0.491-1.586c-0.037-0.123-0.063-0.219-0.079-0.291c-0.065,0.253-0.252,0.879-0.56,1.877H142.018z"/>
		<path d="M149.161,67.921h-0.919v-3.57h-1.177v-0.765h3.274v0.765h-1.177V67.921z"/>
		<path d="M156.903,67.921h-2.497v-4.335h2.497v0.753h-1.578v0.952h1.468v0.753h-1.468v1.118h1.578V67.921z"/>
		<path d="M165.431,67.921h-1.047l-0.587-2.277c-0.022-0.081-0.059-0.249-0.111-0.503c-0.052-0.254-0.083-0.425-0.09-0.512
			c-0.012,0.107-0.042,0.278-0.089,0.514c-0.047,0.236-0.084,0.405-0.11,0.506l-0.584,2.271h-1.044l-1.106-4.335h0.904l0.555,2.366
			c0.097,0.437,0.167,0.815,0.211,1.136c0.012-0.113,0.039-0.287,0.082-0.523c0.042-0.236,0.083-0.42,0.12-0.55l0.632-2.429h0.869
			l0.632,2.429c0.028,0.109,0.062,0.275,0.104,0.498c0.042,0.223,0.073,0.415,0.095,0.575c0.02-0.154,0.051-0.346,0.095-0.577
			c0.044-0.23,0.083-0.417,0.119-0.559l0.552-2.366h0.904L165.431,67.921z"/>
		<path d="M173.135,67.921l-0.314-1.032h-1.581l-0.314,1.032h-0.99l1.53-4.353h1.124l1.536,4.353H173.135z M172.601,66.118
			c-0.291-0.935-0.454-1.464-0.491-1.586c-0.037-0.123-0.063-0.219-0.079-0.291c-0.065,0.253-0.252,0.879-0.56,1.877H172.601z"/>
		<path d="M179.421,65.371l0.904-1.785h0.99l-1.438,2.648v1.687h-0.913v-1.658l-1.438-2.678h0.996L179.421,65.371z"/>
	</g>
</g>
</svg>
