<?xml version="1.0" encoding="utf-8"?>
<!-- Generator: Adobe Illustrator 17.0.0, SVG Export Plug-In . SVG Version: 6.00 Build 0)  -->
<!DOCTYPE svg PUBLIC "-//W3C//DTD SVG 1.1//EN" "http://www.w3.org/Graphics/SVG/1.1/DTD/svg11.dtd">
<svg version="1.1" id="Layer_1" xmlns="http://www.w3.org/2000/svg" xmlns:xlink="http://www.w3.org/1999/xlink" x="0px" y="0px"
	 width="231px" height="63px" viewBox="0 0 231 63" enable-background="new 0 0 231 63" xml:space="preserve">
<g>
	<g>
		<path fill="#FFFFFF" d="M53.336,62.946c-4.329,0-8.225-0.55-11.689-1.645c-3.463-1.096-6.407-2.784-8.831-5.065
			c-2.425-2.279-4.286-5.165-5.585-8.658c-1.299-3.492-1.948-7.605-1.948-12.338V1.212h17.143v33.681
			c0,4.387,1.001,7.634,3.006,9.741c2.005,2.108,4.697,3.16,8.077,3.16s6.07-1.009,8.075-3.03c2.005-2.02,3.008-5.165,3.008-9.438
			V1.212h17.143v33.594c0,4.907-0.679,9.135-2.035,12.684c-1.357,3.55-3.262,6.465-5.715,8.745
			c-2.454,2.281-5.426,3.969-8.918,5.065C61.575,62.396,57.665,62.946,53.336,62.946z"/>
		<path fill="#FFFFFF" d="M91.692,1.212h25.975c3.81,0,7.273,0.476,10.39,1.429c3.117,0.952,5.771,2.338,7.966,4.156
			c2.193,1.818,3.881,4.056,5.065,6.71c1.182,2.656,1.775,5.658,1.775,9.005v0.173c0,3.58-0.649,6.725-1.948,9.438
			c-1.298,2.714-3.103,4.993-5.411,6.84c-2.309,1.848-5.065,3.233-8.269,4.156c-3.203,0.924-6.682,1.385-10.433,1.385h-8.312V61.82
			H91.692V1.212z M116.454,31.343c3.001,0,5.354-0.71,7.057-2.132c1.702-1.422,2.554-3.351,2.554-5.789v-0.174
			c0-2.611-0.852-4.6-2.554-5.963c-1.703-1.364-4.085-2.046-7.144-2.046h-7.879v16.105H116.454z"/>
		<path fill="#FFFFFF" d="M180.871,63.032c-4.734,0-9.106-0.766-13.117-2.294c-4.013-1.529-7.49-3.68-10.434-6.45
			c-2.944-2.771-5.253-6.075-6.926-9.914c-1.675-3.838-2.511-8.066-2.511-12.684v-0.173c0-4.386,0.818-8.499,2.455-12.338
			c1.637-3.838,3.891-7.187,6.763-10.044c2.871-2.857,6.309-5.093,10.315-6.71C171.422,0.809,175.763,0,180.439,0
			c5.368,0,10,0.779,13.896,2.338c3.896,1.558,7.46,3.723,10.693,6.494l-9.87,11.862c-2.194-1.847-4.431-3.26-6.71-4.242
			c-2.281-0.981-4.922-1.472-7.923-1.472c-2.194,0-4.229,0.433-6.104,1.299c-1.877,0.866-3.507,2.05-4.892,3.55
			c-1.386,1.502-2.482,3.262-3.291,5.282c-0.809,2.021-1.212,4.186-1.212,6.494v0.173c0,2.424,0.404,4.675,1.216,6.753
			c0.81,2.078,1.953,3.853,3.43,5.325c1.477,1.472,3.214,2.627,5.213,3.463c1.997,0.838,4.213,1.255,6.645,1.255
			c3.938,0,7.181-0.836,9.73-2.511v-7.36h-11.949V26.408h27.88v27.273c-3.233,2.656-7.043,4.878-11.429,6.667
			C191.376,62.137,186.413,63.032,180.871,63.032z"/>
	</g>
	<g>
		<path fill="#FFB600" d="M207.158,47.089v3.541c7.569,3.439,14.866,7.288,21.851,11.519
			C222.12,56.619,214.817,51.583,207.158,47.089z"/>
		<g>
			<path fill="#FFB600" d="M115.504,22.257c-2.363,0-4.714,0.053-7.055,0.143v9.014c2.344-0.07,4.697-0.111,7.061-0.111
				c26.774,0,52.326,4.421,75.725,12.86v-5.379C168.187,28.177,142.539,22.257,115.504,22.257z"/>
			<g>
				<path fill="#FFB600" d="M27.136,47.66c-0.248-0.667-0.465-1.364-0.666-2.076C17.853,50.448,9.67,55.992,2,62.15
					c8.152-4.938,16.727-9.343,25.666-13.172C27.481,48.548,27.304,48.11,27.136,47.66z"/>
				<path fill="#FFB600" d="M42.474,37.569c0.22,2.049,0.71,3.79,1.48,5.212c15.128-5.062,31.117-8.545,47.719-10.257v-8.715
					C74.387,26.079,57.871,30.788,42.474,37.569z"/>
			</g>
		</g>
	</g>
</g>
</svg>
