<?xml version="1.0" encoding="utf-8"?>
<!-- Generator: Avocode 2.6.0 - http://avocode.com -->
<svg height="16" width="22" xmlns:xlink="http://www.w3.org/1999/xlink" xmlns="http://www.w3.org/2000/svg" viewBox="0 0 22 16">
    <path fill="#ffffff" fill-rule="evenodd" d="M 3.49 14.6 C 3.49 14.6 18.1 -0.01 18.1 -0.01 C 18.1 -0.01 19.51 1.4 19.51 1.4 C 19.51 1.4 4.9 16.01 4.9 16.01 C 4.9 16.01 3.49 14.6 3.49 14.6 Z M 11 4.5 C 11.35 4.5 11.68 4.57 12 4.67 C 12 4.67 7.71 8.96 7.71 8.96 C 7.62 8.65 7.56 8.34 7.56 8 C 7.56 6.07 9.1 4.5 11 4.5 Z M 11 2.4 C 7.96 2.4 5.5 4.91 5.5 8 C 5.5 8.92 5.74 9.78 6.13 10.55 C 6.13 10.55 4.3 12.37 4.3 12.37 C 1.69 10.39 0 8 0 8 C 0 8 4.93 1 11 1 C 12.33 1 13.61 1.35 14.79 1.88 C 14.79 1.88 13.59 3.09 13.59 3.09 C 12.81 2.66 11.94 2.4 11 2.4 Z M 11 11.5 C 10.95 11.5 10.9 11.49 10.84 11.48 C 10.84 11.48 14.43 7.9 14.43 7.9 C 14.43 7.93 14.44 7.97 14.44 8 C 14.44 9.93 12.9 11.5 11 11.5 Z M 11 13.6 C 14.04 13.6 16.5 11.09 16.5 8 C 16.5 7.35 16.37 6.74 16.17 6.16 C 16.17 6.16 18.26 4.07 18.26 4.07 C 20.55 5.95 22 8 22 8 C 22 8 17.07 15 11 15 C 9.93 15 8.89 14.77 7.91 14.42 C 7.91 14.42 9.09 13.23 9.09 13.23 C 9.69 13.46 10.33 13.6 11 13.6 Z" />
</svg>