<?xml version="1.0" encoding="utf-8"?>
<!-- Generator: Adobe Illustrator 17.0.0, SVG Export Plug-In . SVG Version: 6.00 Build 0)  -->
<!DOCTYPE svg PUBLIC "-//W3C//DTD SVG 1.1//EN" "http://www.w3.org/Graphics/SVG/1.1/DTD/svg11.dtd">
<svg version="1.1" id="Layer_1" xmlns="http://www.w3.org/2000/svg" xmlns:xlink="http://www.w3.org/1999/xlink" x="0px" y="0px"
	 width="26px" height="32px" viewBox="0 0 26 32" enable-background="new 0 0 26 32" xml:space="preserve">
<rect x="3" y="28" fill="#CECECE" width="20" height="4"/>
<rect x="3" y="13" fill="#CECECE" width="3" height="16"/>
<rect x="9" y="13" fill="#CECECE" width="2" height="16"/>
<rect x="15" y="13" fill="#CECECE" width="2" height="16"/>
<rect x="20" y="13" fill="#CECECE" width="3" height="16"/>
<path fill="#CECECE" d="M26,11.675C26,12.959,24.959,14,23.675,14H2.325C1.041,14,0,12.959,0,11.675v-0.35C0,10.041,1.041,9,2.325,9
	h21.35C24.959,9,26,10.041,26,11.325V11.675z"/>
<rect x="2" y="5" fill="#CECECE" width="22" height="2"/>
<rect x="4" y="3" fill="#CECECE" width="18" height="2"/>
<rect x="8" y="1" fill="#CECECE" width="10" height="2"/>
</svg>
