<?xml version="1.0" encoding="utf-8"?>
<!-- Generator: Adobe Illustrator 17.0.0, SVG Export Plug-In . SVG Version: 6.00 Build 0)  -->
<!DOCTYPE svg PUBLIC "-//W3C//DTD SVG 1.1//EN" "http://www.w3.org/Graphics/SVG/1.1/DTD/svg11.dtd">
<svg version="1.1" id="Layer_1" xmlns="http://www.w3.org/2000/svg" xmlns:xlink="http://www.w3.org/1999/xlink" x="0px" y="0px"
	 width="16px" height="16px" viewBox="0 0 16 16" enable-background="new 0 0 16 16" xml:space="preserve">
<g>
	<rect x="2" y="14" fill="#FFFFFF" width="12" height="2"/>
	<rect x="2" y="7" fill="#FFFFFF" width="1" height="9"/>
	<rect x="13" y="7" fill="#FFFFFF" width="1" height="9"/>
	<rect x="9" y="7" fill="#FFFFFF" width="2" height="9"/>
	<rect x="5" y="7" fill="#FFFFFF" width="2" height="9"/>
	<path fill="#FFFFFF" d="M16,5.189C16,5.637,15.637,6,15.189,6H0.811C0.363,6,0,5.637,0,5.189V4.811C0,4.363,0.363,4,0.811,4h14.377
		C15.637,4,16,4.363,16,4.811V5.189z"/>
	<rect x="2" y="5" fill="#FFFFFF" width="12" height="2"/>
	<rect x="1" y="2" fill="#FFFFFF" width="14" height="1"/>
	<rect x="2" y="1" fill="#FFFFFF" width="12" height="1"/>
	<rect x="6" fill="#FFFFFF" width="4" height="1"/>
</g>
</svg>
